<svg width="44" height="52" viewBox="0 0 44 52" fill="none" xmlns="http://www.w3.org/2000/svg">
<path fill-rule="evenodd" clip-rule="evenodd" d="M29.8569 3.97062C30.0761 2.01265 28.688 0.244633 26.73 0.0254573C24.772 -0.20833 23.004 1.19439 22.7848 3.15236C22.5218 5.38795 22.8871 8.0619 23.3547 10.8089C24.6551 11.2034 25.9117 11.7733 27.0807 12.4454C28.3373 9.47923 29.5647 6.54228 29.8569 3.97062ZM43.6065 12.5623C42.8321 10.7505 40.728 9.9322 38.9162 10.7066C36.5344 11.744 34.0651 13.7751 31.5811 15.8645C32.5162 16.7851 33.3929 17.8225 34.1381 18.9476C36.9582 18.5969 39.6614 18.1732 41.7508 17.2673C43.5627 16.4636 44.3955 14.3595 43.6065 12.5623ZM37.6011 3.00625C36.023 1.83731 33.7874 2.15877 32.6185 3.73683C30.8359 6.13315 29.6377 9.71302 28.3373 13.2052C28.7756 13.4975 29.1848 13.7897 29.5793 14.0965C29.8715 14.3303 30.1784 14.5787 30.4852 14.8271C33.466 12.5769 36.5637 10.3852 38.3463 7.98884C39.5152 6.41077 39.1792 4.17518 37.6011 3.00625Z" fill="white"/>
<path d="M30.8213 31.6159C29.7254 32.7995 28.5565 33.8953 27.3145 34.962C25.5757 36.467 23.8077 37.9282 22.0104 39.3309C20.0817 38.1473 18.6936 37.5483 18.4598 37.8551C18.2552 38.1327 19.0589 39.1556 20.5054 40.4852C15.6543 44.0943 10.5256 47.2797 5.01702 49.8952C4.15493 50.3043 3.24901 50.5965 2.35769 50.918C2.12391 51.0056 1.87551 51.0056 1.77322 51.0203C0.3705 51.181 -0.0532392 50.8011 0.00520763 49.5153C0.180548 45.5116 1.42254 41.7564 2.70837 38.0158C3.05905 36.993 3.42435 35.9702 3.80425 34.9474C5.74761 36.1309 7.13572 36.7446 7.36951 36.4378C7.61791 36.1017 6.44897 34.7574 4.491 33.0771C5.89373 29.4534 7.45718 25.8881 9.29825 22.469C12.9804 25.2014 16.2534 26.9986 16.6187 26.5018C16.984 26.005 14.2808 23.3603 10.5549 20.5987L10.3941 20.4818C11.037 19.3859 11.7092 18.29 12.4252 17.2234C13.3165 15.8791 14.4124 14.6517 15.4936 13.4536C16.9402 11.8609 18.8105 11.3202 20.9 11.7878C27.5921 13.2782 32.2386 17.1211 34.4304 23.711C34.8687 25.0553 34.4742 26.3703 33.7875 27.5831C33.3199 28.4013 32.8085 29.1758 32.2386 29.9063C28.7026 27.3201 25.6341 25.6543 25.2835 26.1219C24.9474 26.5895 27.3876 29.0004 30.8213 31.6159Z" fill="white"/>
</svg>
