<svg width="15" height="19" viewBox="0 0 15 19" fill="none" xmlns="http://www.w3.org/2000/svg">
<path d="M3.66667 9.12138C3.79423 9.07386 3.93141 9.04915 4.0701 9.04872C4.20878 9.04828 4.34616 9.07212 4.47411 9.11883C4.60207 9.16554 4.71799 9.23417 4.81504 9.32066C4.91209 9.40716 4.98829 9.50976 5.03914 9.6224C5.08999 9.73505 5.11445 9.85545 5.11109 9.97649C5.10772 10.0975 5.07659 10.2168 5.01954 10.3271C4.96249 10.4375 4.88068 10.5367 4.77893 10.619C4.67719 10.7013 4.55759 10.7649 4.42719 10.8062C3.73364 11.0447 3.13838 11.46 2.71888 11.998C2.29938 12.5359 2.07505 13.1717 2.07508 13.8225V15.3986C2.07508 15.6388 2.18439 15.8692 2.37897 16.039C2.57355 16.2089 2.83745 16.3043 3.11262 16.3043H11.413C11.6881 16.3043 11.952 16.2089 12.1466 16.039C12.3412 15.8692 12.4505 15.6388 12.4505 15.3986V13.9067C12.4506 13.235 12.2169 12.5792 11.7804 12.0261C11.3438 11.473 10.725 11.0489 10.006 10.8098C9.87484 10.77 9.75411 10.7077 9.65101 10.6264C9.54791 10.5452 9.46455 10.4467 9.40586 10.3368C9.34717 10.2269 9.31434 10.1079 9.30933 9.98672C9.30432 9.86555 9.32723 9.74473 9.37669 9.63144C9.42616 9.51814 9.50118 9.41467 9.5973 9.32715C9.69342 9.23963 9.80869 9.16985 9.93627 9.12195C10.0639 9.07404 10.2012 9.04899 10.34 9.04827C10.4789 9.04755 10.6166 9.07118 10.7448 9.11775C11.8566 9.48748 12.8135 10.1434 13.4887 10.9986C14.1639 11.8539 14.5255 12.868 14.5256 13.9067V15.3986C14.5256 16.1192 14.1976 16.8104 13.6139 17.32C13.0302 17.8296 12.2385 18.1159 11.413 18.1159H3.11262C2.2871 18.1159 1.4954 17.8296 0.911666 17.32C0.327936 16.8104 0 16.1192 0 15.3986L0 13.8225C0.000142767 12.8081 0.349939 11.8173 1.00388 10.9788C1.65783 10.1404 2.58566 9.49319 3.66667 9.12138ZM7.26279 0C8.36348 0 9.41909 0.381728 10.1974 1.06121C10.9757 1.74069 11.413 2.66226 11.413 3.62319V5.43478C11.413 6.39571 10.9757 7.31728 10.1974 7.99676C9.41909 8.67624 8.36348 9.05797 7.26279 9.05797C6.1621 9.05797 5.10649 8.67624 4.32818 7.99676C3.54987 7.31728 3.11262 6.39571 3.11262 5.43478V3.62319C3.11262 2.66226 3.54987 1.74069 4.32818 1.06121C5.10649 0.381728 6.1621 0 7.26279 0ZM7.26279 1.81159C6.71244 1.81159 6.18464 2.00246 5.79548 2.3422C5.40633 2.68194 5.18771 3.14272 5.18771 3.62319V5.43478C5.18771 5.91525 5.40633 6.37603 5.79548 6.71577C6.18464 7.05551 6.71244 7.24638 7.26279 7.24638C7.81314 7.24638 8.34094 7.05551 8.73009 6.71577C9.11925 6.37603 9.33787 5.91525 9.33787 5.43478V3.62319C9.33787 3.14272 9.11925 2.68194 8.73009 2.3422C8.34094 2.00246 7.81314 1.81159 7.26279 1.81159Z" fill="#181725"/>
</svg>
